<mxfile host="65bd71144e">
    <diagram id="ACUPMISzitLY2N91Vd6J" name="第 1 页">
        <mxGraphModel dx="324" dy="515" grid="1" gridSize="10" guides="1" tooltips="1" connect="1" arrows="1" fold="1" page="1" pageScale="1" pageWidth="827" pageHeight="1169" background="#ffffff" math="0" shadow="0">
            <root>
                <mxCell id="0"/>
                <mxCell id="1" parent="0"/>
                <mxCell id="4" value="" style="edgeStyle=none;html=1;fontColor=#000000;strokeColor=#000000;" parent="1" source="2" target="3" edge="1">
                    <mxGeometry relative="1" as="geometry"/>
                </mxCell>
                <mxCell id="2" value=".java文件" style="text;html=1;align=center;verticalAlign=middle;resizable=0;points=[];autosize=1;strokeColor=none;fillColor=none;fontStyle=1;fontColor=#000000;" parent="1" vertex="1">
                    <mxGeometry x="15" y="55" width="70" height="30" as="geometry"/>
                </mxCell>
                <mxCell id="6" value="" style="edgeStyle=none;html=1;strokeColor=#000000;fontColor=#000000;" parent="1" source="3" target="5" edge="1">
                    <mxGeometry relative="1" as="geometry"/>
                </mxCell>
                <mxCell id="3" value=".class文件" style="text;html=1;align=center;verticalAlign=middle;resizable=0;points=[];autosize=1;strokeColor=none;fillColor=none;fontStyle=1;fontColor=#000000;" parent="1" vertex="1">
                    <mxGeometry x="140" y="55" width="80" height="30" as="geometry"/>
                </mxCell>
                <mxCell id="8" value="" style="edgeStyle=none;html=1;strokeColor=#000000;fontColor=#000000;entryX=0.582;entryY=0;entryDx=0;entryDy=0;entryPerimeter=0;" parent="1" source="5" target="7" edge="1">
                    <mxGeometry relative="1" as="geometry"/>
                </mxCell>
                <mxCell id="5" value="类加载器&lt;br&gt;Class Loader" style="whiteSpace=wrap;html=1;fontColor=#000000;fillColor=#f5f5f5;strokeColor=#666666;fontStyle=1;rounded=0;" parent="1" vertex="1">
                    <mxGeometry x="280" y="40" width="90" height="60" as="geometry"/>
                </mxCell>
                <mxCell id="16" style="edgeStyle=none;html=1;exitX=0.75;exitY=1;exitDx=0;exitDy=0;strokeColor=#000000;fontColor=#000000;" parent="1" source="7" edge="1">
                    <mxGeometry relative="1" as="geometry">
                        <mxPoint x="413" y="400" as="targetPoint"/>
                    </mxGeometry>
                </mxCell>
                <mxCell id="26" style="edgeStyle=none;html=1;exitX=0.25;exitY=1;exitDx=0;exitDy=0;entryX=0.308;entryY=0.017;entryDx=0;entryDy=0;entryPerimeter=0;strokeColor=#000000;fontColor=#000000;" parent="1" source="7" target="23" edge="1">
                    <mxGeometry relative="1" as="geometry"/>
                </mxCell>
                <mxCell id="7" value="" style="whiteSpace=wrap;html=1;fillColor=#f5f5f5;strokeColor=#666666;fontColor=#000000;fontStyle=1;rounded=0;" parent="1" vertex="1">
                    <mxGeometry x="30" y="150" width="510" height="210" as="geometry"/>
                </mxCell>
                <mxCell id="9" value="" style="endArrow=classic;html=1;strokeColor=#000000;fontColor=#000000;entryX=0.25;entryY=1;entryDx=0;entryDy=0;" parent="1" target="5" edge="1">
                    <mxGeometry width="50" height="50" relative="1" as="geometry">
                        <mxPoint x="303" y="150" as="sourcePoint"/>
                        <mxPoint x="320" y="240" as="targetPoint"/>
                    </mxGeometry>
                </mxCell>
                <mxCell id="10" value="运行时数据区（Runtime Date Area）" style="text;html=1;strokeColor=none;fillColor=none;align=center;verticalAlign=middle;whiteSpace=wrap;rounded=0;fontColor=#000000;" parent="1" vertex="1">
                    <mxGeometry x="180" y="160" width="220" height="30" as="geometry"/>
                </mxCell>
                <mxCell id="11" value="方法区&lt;br&gt;Method Area" style="rounded=0;whiteSpace=wrap;html=1;fillColor=#dae8fc;strokeColor=#6c8ebf;fontStyle=1;fontColor=#000000;" parent="1" vertex="1">
                    <mxGeometry x="50" y="190" width="120" height="60" as="geometry"/>
                </mxCell>
                <mxCell id="12" value="堆&lt;br&gt;Heap" style="rounded=0;whiteSpace=wrap;html=1;fillColor=#dae8fc;strokeColor=#6c8ebf;fontStyle=1;fontColor=#000000;" parent="1" vertex="1">
                    <mxGeometry x="50" y="280" width="120" height="60" as="geometry"/>
                </mxCell>
                <mxCell id="13" value="Java栈&lt;br&gt;Stack" style="rounded=0;whiteSpace=wrap;html=1;fillColor=#dae8fc;strokeColor=#6c8ebf;fontStyle=1;fontColor=#000000;" parent="1" vertex="1">
                    <mxGeometry x="225" y="190" width="120" height="60" as="geometry"/>
                </mxCell>
                <mxCell id="14" value="本地方法栈&lt;br&gt;Native Method Stack" style="rounded=0;whiteSpace=wrap;html=1;fillColor=#dae8fc;strokeColor=#6c8ebf;fontStyle=1;fontColor=#000000;" parent="1" vertex="1">
                    <mxGeometry x="400" y="190" width="120" height="60" as="geometry"/>
                </mxCell>
                <mxCell id="15" value="程序计数器（PC寄存器，PC Registers）" style="rounded=0;whiteSpace=wrap;html=1;fillColor=#dae8fc;strokeColor=#6c8ebf;fontStyle=1;fontColor=#000000;" parent="1" vertex="1">
                    <mxGeometry x="250" y="280" width="240" height="60" as="geometry"/>
                </mxCell>
                <mxCell id="18" style="edgeStyle=none;html=1;exitX=0.25;exitY=0;exitDx=0;exitDy=0;entryX=0.694;entryY=1;entryDx=0;entryDy=0;entryPerimeter=0;strokeColor=#000000;fontColor=#000000;" parent="1" source="17" target="7" edge="1">
                    <mxGeometry relative="1" as="geometry"/>
                </mxCell>
                <mxCell id="17" value="本地接口&lt;br&gt;Native Method Interface" style="rounded=0;whiteSpace=wrap;html=1;fillColor=#f5f5f5;strokeColor=#666666;fontStyle=1;fontColor=#333333;" parent="1" vertex="1">
                    <mxGeometry x="354" y="400" width="120" height="60" as="geometry"/>
                </mxCell>
                <mxCell id="22" value="" style="edgeStyle=none;html=1;strokeColor=#000000;fontColor=#000000;" parent="1" source="21" target="17" edge="1">
                    <mxGeometry relative="1" as="geometry"/>
                </mxCell>
                <mxCell id="21" value="本地方法库&lt;br&gt;Native Method Library" style="rounded=0;whiteSpace=wrap;html=1;fillColor=#f5f5f5;strokeColor=#666666;fontStyle=1;fontColor=#333333;" parent="1" vertex="1">
                    <mxGeometry x="510" y="400" width="120" height="60" as="geometry"/>
                </mxCell>
                <mxCell id="25" style="edgeStyle=none;html=1;exitX=0.5;exitY=0;exitDx=0;exitDy=0;entryX=0.294;entryY=1;entryDx=0;entryDy=0;entryPerimeter=0;strokeColor=#000000;fontColor=#000000;" parent="1" source="23" target="7" edge="1">
                    <mxGeometry relative="1" as="geometry"/>
                </mxCell>
                <mxCell id="23" value="执行引擎&lt;br&gt;Execution Engine" style="rounded=0;whiteSpace=wrap;html=1;fillColor=#f5f5f5;strokeColor=#666666;fontStyle=1;fontColor=#333333;align=right;" parent="1" vertex="1">
                    <mxGeometry x="70" y="400" width="240" height="60" as="geometry"/>
                </mxCell>
                <mxCell id="27" value="即时编译器&lt;br&gt;垃圾回收器&lt;br&gt;解析器" style="rounded=0;whiteSpace=wrap;html=1;fillColor=#dae8fc;strokeColor=#6c8ebf;fontStyle=1;fontColor=#000000;" vertex="1" parent="1">
                    <mxGeometry x="80" y="405" width="110" height="50" as="geometry"/>
                </mxCell>
            </root>
        </mxGraphModel>
    </diagram>
</mxfile>